Coordinates
version=1
nRows=8
nColumns=40
inDegrees=yes

Units are S.I. units (second, meters, Newtons, ...)
If the header above contains a line with 'inDegrees', this indicates whether rotational values are in degrees (yes) or radians (no).

endheader
time	pelvis_tilt	pelvis_list	pelvis_rotation	pelvis_tx	pelvis_ty	pelvis_tz	hip_flexion_r	hip_adduction_r	hip_rotation_r	knee_angle_r	knee_angle_r_beta	ankle_angle_r	subtalar_angle_r	mtp_angle_r	hip_flexion_l	hip_adduction_l	hip_rotation_l	knee_angle_l	knee_angle_l_beta	ankle_angle_l	subtalar_angle_l	mtp_angle_l	lumbar_extension	lumbar_bending	lumbar_rotation	arm_flex_r	arm_add_r	arm_rot_r	elbow_flex_r	pro_sup_r	wrist_flex_r	wrist_dev_r	arm_flex_l	arm_add_l	arm_rot_l	elbow_flex_l	pro_sup_l	wrist_flex_l	wrist_dev_l
      7.57500000000000017764	     14.10482106811476654684	      6.46363720937855656956	   -178.59683643536243380368	      0.33460578334571083881	      0.80921427067824114321	     -0.90442449062792218406	     54.93954951073878589796	    -41.94886368215201599696	    -31.95195736124236773890	     56.33045437774138264331	      0.98315189803604075003	     -9.45145383660679350157	      0.00000000000000000000	      0.00000000000000000000	     69.13355835635883295254	    -38.26898266441340012989	     -0.91612136347406458725	     60.55542816386113003091	      1.05689160141428106776	      0.42199126297944661301	      0.00000000000000000000	      0.00000000000000000000	    -60.93135576955943122357	      9.53090645725713336844	      7.43894195589587514661	     54.07968087946892410400	    -13.65766181011508706433	     15.07142907534145237491	     21.16813534493656234758	     86.38821767459981515458	      0.00000000000000000000	      0.00000000000000000000	     52.13910790762922431441	     -1.24848927732572656524	      9.45431134231850300864	     21.12717993611256162012	     86.59348084810117995858	      0.00000000000000000000	      0.00000000000000000000
      7.58000000000000007105	     14.11649795878310165165	      6.44007735741464859558	   -178.57583997138328868459	      0.33474655745648135285	      0.80984038483652309726	     -0.90441076856387980776	     54.89877605037819563449	    -41.92733343098652909475	    -31.97405428065122379166	     56.21426790885980295798	      0.98112406160779119801	     -9.53211437419389895354	      0.00000000000000000000	      0.00000000000000000000	     69.00492872282158884900	    -38.17834126221257662337	     -0.93797239878463622986	     60.38131303172361441511	      1.05385271908093636206	      0.35391088224478295388	      0.00000000000000000000	      0.00000000000000000000	    -60.79459114227126548258	      9.54198113428127037139	      7.36250657919224149595	     53.98678203542474562937	    -13.61765568844093188261	     15.09575836541891113995	     21.15015246436086826520	     86.39379579461346736480	      0.00000000000000000000	      0.00000000000000000000	     52.04678553994349954337	     -1.27272378325540103106	      9.43523498965412876771	     21.12057651308057515394	     86.59508826298844041958	      0.00000000000000000000	      0.00000000000000000000
      7.58499999999999996447	     13.90638301011569133436	      6.20336445253304091807	   -178.78449285627991116598	      0.33451186384683612163	      0.81138888069472070441	     -0.90489371131066320686	     54.85878401833422657319	    -41.77344545048022439460	    -31.52703206395671031714	     55.99688285301661494486	      0.97732997663869591864	     -9.86570529075112112594	      0.00000000000000000000	      0.00000000000000000000	     68.19368604556150614826	    -38.32970578588602705850	     -1.61797227693498224532	     60.05775611737849573046	      1.04820558560802079562	      0.40345425532082690445	      0.00000000000000000000	      0.00000000000000000000	    -60.95652458999546752239	      9.20129086803943607720	      7.20458384999176804087	     53.94425954883412543950	    -13.53976608437809048269	     15.19473364253586034067	     21.26630556869252330898	     86.33931763451145968702	      0.00000000000000000000	      0.00000000000000000000	     51.90999908716911193096	     -1.47281495616673185900	      9.49918668721964998269	     21.51285683475718002455	     86.58506911640856174017	      0.00000000000000000000	      0.00000000000000000000
      7.58999999999999985789	     13.94515154753402264021	      6.20158886448616364362	   -178.71645456739634028054	      0.33460624706039027165	      0.81192683496208584160	     -0.90471443966583220408	     54.79713770155385788030	    -41.78782686652571953800	    -31.60394667732426299267	     55.90225398498431275129	      0.97567839132409694969	     -9.88339383205838295510	      0.00000000000000000000	      0.00000000000000000000	     68.16427393183876404237	    -38.20040125113862927719	     -1.57486774496996195793	     59.94561103940829127623	      1.04624828475753495205	      0.36249639557068108475	      0.00000000000000000000	      0.00000000000000000000	    -60.77607708186640422809	      9.29098592778693976868	      7.14230722724263333845	     53.84615356488726689577	    -13.53519496087157847342	     15.19348822742160187715	     21.23571281814234268381	     86.34560570207655416652	      0.00000000000000000000	      0.00000000000000000000	     51.83419030200990107460	     -1.46796753526601797546	      9.50118916468441909728	     21.45437689563998162612	     86.58741020216730532866	      0.00000000000000000000	      0.00000000000000000000
      7.59499999999999975131	     14.02294164814396992824	      6.23348280002435917169	   -178.67737886890876097823	      0.33471615300506363244	      0.81257951344485257472	     -0.90462185810950790366	     54.73659077213776669169	    -41.69683114765498288534	    -31.64488155246483103156	     55.69053797937589678213	      0.97198324994705942448	     -9.96546302943309569855	      0.00000000000000000000	      0.00000000000000000000	     68.13590869465103594393	    -38.11513693021998250288	     -1.57327826762333522481	     59.74084002643806456945	      1.04267435636856053982	      0.30268111357214605439	      0.00000000000000000000	      0.00000000000000000000	    -60.58346859810248474787	      9.38786395342718726909	      7.12429170586188664771	     53.72278806359197034226	    -13.51030893383694220233	     15.18503732226403890593	     21.21831900494360922949	     86.35412992346435601121	      0.00000000000000000000	      0.00000000000000000000	     51.77970108159664874847	     -1.46499477521486598519	      9.50752338689515141823	     21.38510760603817573156	     86.58955335119362928253	      0.00000000000000000000	      0.00000000000000000000
      7.59999999999999964473	     14.10247560518638998417	      6.26187598327073224880	   -178.67583253136223220281	      0.33488343573477263870	      0.81331486946896780488	     -0.90458892393382317465	     54.70412870400778615476	    -41.58340716694965522038	    -31.67297376389142726794	     55.52230768375081026988	      0.96904707738679818352	    -10.06192260184881703822	      0.00000000000000000000	      0.00000000000000000000	     68.09051371216723680391	    -38.05037583747628104902	     -1.56898900413983288793	     59.52225942947492853818	      1.03885940527057907268	      0.24605127940838797396	      0.00000000000000000000	      0.00000000000000000000	    -60.40228884662234065672	      9.45829213066030227708	      7.13870490661701406765	     53.62793247117974004823	    -13.50424153486775225019	     15.15671089539549321046	     21.22692022358468477705	     86.36127529271207947659	      0.00000000000000000000	      0.00000000000000000000	     51.75279097377725889828	     -1.43906031613508034184	      9.53013437675715024966	     21.30890539604192213119	     86.59114732230126776358	      0.00000000000000000000	      0.00000000000000000000
      7.60500000000000042633	     14.16449497998334550175	      6.26106346418572901058	   -178.66826964314793713129	      0.33493947887715147527	      0.81399412795646697294	     -0.90454539387641808013	     54.63984794393671506896	    -41.51899482233267946185	    -31.73595017724436218032	     55.35182352278945927537	      0.96607156745552258403	    -10.10388727834565791852	      0.00000000000000000000	      0.00000000000000000000	     68.02640072413890948155	    -37.95753494814416484360	     -1.54149897590412443549	     59.36442029906429240782	      1.03610459275642874388	      0.20158405898751988183	      0.00000000000000000000	      0.00000000000000000000	    -60.20741448687980579280	      9.49134410607356571177	      7.08976978577728722541	     53.50763644114974937338	    -13.49967073772716652513	     15.13181055124029406045	     21.22861060626694396092	     86.36699338101504963561	      0.00000000000000000000	      0.00000000000000000000	     51.64416692036335376770	     -1.42828444148723843199	      9.55819342556578099845	     21.19231739613584508675	     86.59018835288262039285	      0.00000000000000000000	      0.00000000000000000000
      7.61000000000000031974	     14.26229310849573295172	      6.28919894222677111628	   -178.77130667095835292457	      0.33515699111928259901	      0.81486532866789396223	     -0.90478309894167385785	     54.59377171561578023784	    -41.18388630169567221628	    -31.55342645582989646869	     54.93416957009701917514	      0.95878213084707097913	    -10.19471401295034951318	      0.00000000000000000000	      0.00000000000000000000	     67.92890500897108552181	    -37.96946082416610579457	     -1.56837815579088335483	     59.08362028432043189241	      1.03120370795949978238	      0.15570131288625488342	      0.00000000000000000000	      0.00000000000000000000	    -60.02524951550029186365	      9.45676264136503519353	      7.19188094929163224123	     53.38338996945627457080	    -13.53337711182865810144	     15.00209322875257988983	     21.33749850371642509117	     86.37712182531824112175	      0.00000000000000000000	      0.00000000000000000000	     51.74534830677214358730	     -1.36357669667155900761	      9.69293011942156823579	     20.99893904194905402960	     86.58690749282105514339	      0.00000000000000000000	      0.00000000000000000000
